<svg height="512" viewBox="0 0 64 64" width="512" xmlns="http://www.w3.org/2000/svg"><g id="graph"><path d="m61 45v4a2.006 2.006 0 0 1 -2 2h-54a2.006 2.006 0 0 1 -2-2v-4z" fill="#c6c5ca"/><path d="m57 33h-6v-6a6 6 0 1 0 6 6zm-38 0h-6v-6a6 6 0 1 0 6 6z" fill="#57a4ff"/><path d="m61 17v28h-58v-28a2.006 2.006 0 0 1 2-2h54a2.006 2.006 0 0 1 2 2z" fill="#57a4ff"/><path d="m61 17v28h-58v-4h45a8 8 0 0 0 8-8v-18h3a2.006 2.006 0 0 1 2 2z" fill="#006df0"/><path d="m57 15v8h-28v-8-12h28z" fill="#00d7df"/><path d="m57 3v20h-28v-4h16a8 8 0 0 0 8-8v-8z" fill="#009698"/><path d="m51 33h6a6 6 0 1 1 -6-6z" fill="#ffd422"/><path d="m46 59a2.015 2.015 0 0 1 -2 2h-24a2.006 2.006 0 0 1 -2-2 2.015 2.015 0 0 1 2-2h24a2.006 2.006 0 0 1 2 2z" fill="#c6c5ca"/><path d="m46 59h-28a2.015 2.015 0 0 1 2-2h24a2.006 2.006 0 0 1 2 2z" fill="#898890"/><path d="m29 51h6v6h-6z" fill="#57a4ff"/><path d="m13 33h6a6 6 0 1 1 -6-6z" fill="#ffd422"/><path d="m3 45h58v2h-58z" fill="#898890"/><path d="m59 14h-1v-11a1 1 0 0 0 -1-1h-28a1 1 0 0 0 -1 1v11h-23a3.009 3.009 0 0 0 -3 3v32a3.009 3.009 0 0 0 3 3h23v4h-8a3 3 0 0 0 0 6h24a3 3 0 0 0 0-6h-8v-4h23a3.009 3.009 0 0 0 3-3v-32a3.009 3.009 0 0 0 -3-3zm-29-10h26v18h-26zm14 54a1 1 0 0 1 0 2h-24a1 1 0 0 1 0-2zm-14-2v-4h4v4zm30-7a1 1 0 0 1 -1 1h-54a1 1 0 0 1 -1-1v-3h56zm0-5h-56v-27a1 1 0 0 1 1-1h23v7a1 1 0 0 0 1 1h28a1 1 0 0 0 1-1v-7h1a1 1 0 0 1 1 1z"/><path d="m52 8h2v12h-2z"/><path d="m48 10h2v10h-2z"/><path d="m44 12h2v8h-2z"/><path d="m40 14h2v6h-2z"/><path d="m36 16h2v4h-2z"/><path d="m49.764 6h-2.764a1 1 0 0 0 -.707.293l-2.707 2.707h-3.586a1 1 0 0 0 -.832.445l-1.703 2.555h-1.465a1 1 0 0 0 -.707.293l-3 3 1.414 1.414 2.707-2.707h1.586a1 1 0 0 0 .832-.445l1.703-2.555h3.465a1 1 0 0 0 .707-.293l2.707-2.707h2.586a1 1 0 0 0 .447-.105l4-2-.894-1.79z"/><path d="m32 18h2v2h-2z"/><path d="m36 32h6v2h-6z"/><path d="m22 26v7a1 1 0 0 0 1 1h11v-2h-10v-6z"/><path d="m13 40a7.008 7.008 0 0 0 7-7 1 1 0 0 0 -1-1h-5v-5a1 1 0 0 0 -1-1 7 7 0 0 0 0 14zm-1-11.9v4.9a1 1 0 0 0 1 1h4.9a5 5 0 1 1 -5.9-5.9z"/><path d="m51 40a7.008 7.008 0 0 0 7-7 1 1 0 0 0 -1-1h-5v-5a1 1 0 0 0 -1-1 7 7 0 0 0 0 14zm-1-11.9v4.9a1 1 0 0 0 1 1h4.9a5 5 0 1 1 -5.9-5.9z"/><path d="m36 36h6v2h-6z"/><path d="m28 36h6v2h-6z"/><path d="m22 36h4v2h-4z"/><path d="m22 40h20v2h-20z"/><path d="m26 28h16v2h-16z"/><path d="m14 20h12v-2h-13a1 1 0 0 0 -1 1v5h2z"/></g></svg>